<svg xmlns="http://www.w3.org/2000/svg" version="1.1" xmlns:xlink="http://www.w3.org/1999/xlink" xmlns:svgjs="http://svgjs.dev/svgjs" width="2000" height="287" viewBox="0 0 2000 287"><g transform="matrix(1,0,0,1,-1.2121208383354087,-0.6934077076990093)"><svg viewBox="0 0 396 57" data-background-color="#102e44" preserveAspectRatio="xMidYMid meet" height="287" width="2000" xmlns="http://www.w3.org/2000/svg" xmlns:xlink="http://www.w3.org/1999/xlink"><g id="tight-bounds" transform="matrix(1,0,0,1,0.24000007400957202,0.13771511964753813)"><svg viewBox="0 0 395.52 56.72456739258388" height="56.72456739258388" width="395.52"><g><svg viewBox="0 0 395.52 56.72456739258388" height="56.72456739258388" width="395.52"><g><svg viewBox="0 0 395.52 56.72456739258388" height="56.72456739258388" width="395.52"><g id="textblocktransform"><svg viewBox="0 0 395.52 56.72456739258388" height="56.72456739258388" width="395.52" id="textblock"><g><svg viewBox="0 0 395.52 56.72456739258388" height="56.72456739258388" width="395.52"><g transform="matrix(1,0,0,1,0,0)"><svg width="395.52" viewBox="2.9000000953674316 -36.20000076293945 254.83001708984375 36.54999923706055" height="56.72456739258388" data-palette-color="#ffffff"><path d="M21.85-32.35L21.85-32.35 21.85-27.25Q18.5-29.35 14.25-29.35L14.25-29.35Q11.5-29.35 9.93-28.13 8.35-26.9 8.35-24.9 8.35-22.9 9.9-21.7 11.45-20.5 14.65-19.1L14.65-19.1Q16.75-18.2 17.93-17.55 19.1-16.9 20.63-15.73 22.15-14.55 22.88-12.93 23.6-11.3 23.6-9.2L23.6-9.2Q23.6-4.75 20.45-2.2 17.3 0.35 12.3 0.35L12.3 0.35Q6.75 0.35 3.1-1.8L3.1-1.8 3.1-7.15Q7.05-4.2 12.25-4.2L12.25-4.2Q15-4.2 16.6-5.48 18.2-6.75 18.2-9L18.2-9Q18.2-10.35 17.25-11.48 16.3-12.6 15.2-13.18 14.1-13.75 11.9-14.75L11.9-14.75Q10.6-15.35 10.08-15.6 9.55-15.85 8.35-16.5 7.15-17.15 6.58-17.6 6-18.05 5.15-18.85 4.3-19.65 3.93-20.45 3.55-21.25 3.23-22.33 2.9-23.4 2.9-24.65L2.9-24.65Q2.9-28.95 6.03-31.45 9.15-33.95 14.1-33.95L14.1-33.95Q18.65-33.95 21.85-32.35ZM42.85-8.45L42.85-11.3 39.05-11.3Q36.25-11.3 34.82-10.2 33.4-9.1 33.4-7.4L33.4-7.4Q33.4-5.65 34.5-4.65 35.6-3.65 37.7-3.65L37.7-3.65Q40.1-3.65 41.47-4.98 42.85-6.3 42.85-8.45L42.85-8.45ZM30.1-19.3L30.1-19.3 30.1-24.05Q33.05-25.75 37.9-25.75L37.9-25.75Q47.85-25.75 47.85-16.1L47.85-16.1 47.85 0 43 0 43-3Q41.05 0.2 36.15 0.2L36.15 0.2Q32.55 0.2 30.37-1.88 28.2-3.95 28.2-7.15L28.2-7.15Q28.2-10.8 30.95-12.83 33.7-14.85 38.65-14.85L38.65-14.85 42.85-14.85 42.85-16.3Q42.85-18.9 41.6-20.23 40.35-21.55 37.45-21.55L37.45-21.55Q33.4-21.55 30.1-19.3ZM54.45-25.35L59.35-25.35 59.35-21.3Q61.5-25.7 66.5-25.7L66.5-25.7Q72.2-25.7 73.8-20.8L73.8-20.8Q74.84-23.15 76.84-24.43 78.84-25.7 81.34-25.7L81.34-25.7Q85.25-25.7 87.27-23.4 89.3-21.1 89.3-17.05L89.3-17.05 89.3 0 84.4 0 84.4-16Q84.4-21.45 80-21.45L80-21.45Q77.8-21.45 76.07-19.5 74.34-17.55 74.34-13.75L74.34-13.75 74.34 0 69.45 0 69.45-16Q69.45-21.45 65-21.45L65-21.45Q62.85-21.45 61.1-19.5 59.35-17.55 59.35-13.75L59.35-13.75 59.35 0 54.45 0 54.45-25.35ZM101.09 0L96.14 0 96.14-25.35 101.09-25.35 101.09 0ZM96.42-30.93Q95.54-31.8 95.54-33.1 95.54-34.4 96.42-35.3 97.29-36.2 98.59-36.2 99.89-36.2 100.79-35.3 101.69-34.4 101.69-33.1L101.69-33.1Q101.69-31.85 100.79-30.95 99.89-30.05 98.59-30.05 97.29-30.05 96.42-30.93ZM116.39-14.25L115.84-12.55 126.64-12.55 126.09-14.25Q124.19-20.15 122.99-24.03 121.79-27.9 121.54-28.85L121.54-28.85 121.29-29.8Q120.74-27.45 116.39-14.25L116.39-14.25ZM136.19 0L130.69 0 128.04-8.25 114.44-8.25 111.74 0 106.29 0 117.94-33.7 124.69-33.7 136.19 0ZM146.34 0L141.39 0 141.39-35.35 146.34-35.35 146.34 0ZM153.44-35.35L158.34-35.35 158.34-21Q160.49-25.7 166.19-25.7L166.19-25.7Q169.89-25.7 172.14-23.4 174.39-21.1 174.39-17L174.39-17 174.39 0 169.49 0 169.49-16Q169.49-18.6 168.16-20.03 166.84-21.45 164.69-21.45L164.69-21.45Q162.19-21.45 160.26-19.55 158.34-17.65 158.34-13.75L158.34-13.75 158.34 0 153.44 0 153.44-35.35ZM194.33-8.45L194.33-11.3 190.53-11.3Q187.73-11.3 186.31-10.2 184.88-9.1 184.88-7.4L184.88-7.4Q184.88-5.65 185.98-4.65 187.08-3.65 189.18-3.65L189.18-3.65Q191.58-3.65 192.96-4.98 194.33-6.3 194.33-8.45L194.33-8.45ZM181.58-19.3L181.58-19.3 181.58-24.05Q184.53-25.75 189.38-25.75L189.38-25.75Q199.33-25.75 199.33-16.1L199.33-16.1 199.33 0 194.48 0 194.48-3Q192.53 0.2 187.63 0.2L187.63 0.2Q184.03 0.2 181.86-1.88 179.68-3.95 179.68-7.15L179.68-7.15Q179.68-10.8 182.43-12.83 185.18-14.85 190.13-14.85L190.13-14.85 194.33-14.85 194.33-16.3Q194.33-18.9 193.08-20.23 191.83-21.55 188.93-21.55L188.93-21.55Q184.88-21.55 181.58-19.3ZM205.93-25.35L210.83-25.35 210.83-20.9Q212.68-25.6 217.48-25.6L217.48-25.6Q218.18-25.6 219.03-25.45L219.03-25.45 219.03-20.65Q217.98-21.1 216.68-21.1L216.68-21.1Q214.13-21.1 212.48-18.85 210.83-16.6 210.83-13.5L210.83-13.5 210.83 0 205.93 0 205.93-25.35ZM234.83-3.95L234.83-3.95Q237.63-3.95 239.53-6.33 241.43-8.7 241.43-12.45L241.43-12.45Q241.43-16.75 239.53-19.07 237.63-21.4 234.68-21.4L234.68-21.4Q232.08-21.4 230-19.3 227.93-17.2 227.93-12.85L227.93-12.85Q227.93-8.35 229.93-6.15 231.93-3.95 234.83-3.95ZM222.98-35.35L227.93-35.35 227.93-21.5Q230.63-25.7 235.58-25.7L235.58-25.7Q240.38-25.7 243.43-22.1 246.48-18.5 246.48-12.55L246.48-12.55Q246.48-7.2 243.58-3.43 240.68 0.35 235.63 0.35 230.58 0.35 227.93-3.85L227.93-3.85 227.93 0 222.98 0 222.98-35.35ZM257.13 0L252.18 0 252.18-25.35 257.13-25.35 257.13 0ZM252.45-30.93Q251.58-31.8 251.58-33.1 251.58-34.4 252.45-35.3 253.33-36.2 254.63-36.2 255.93-36.2 256.82-35.3 257.73-34.4 257.73-33.1L257.73-33.1Q257.73-31.85 256.82-30.95 255.93-30.05 254.63-30.05 253.33-30.05 252.45-30.93Z" opacity="1" transform="matrix(1,0,0,1,0,0)" fill="#ffffff" class="undefined-text-0" data-fill-palette-color="primary" id="text-0"></path></svg></g></svg></g></svg></g></svg></g></svg></g><defs></defs></svg><rect width="395.52" height="56.72456739258388" fill="none" stroke="none" visibility="hidden"></rect></g></svg></g></svg>